<?xml version="1.0" standalone="no"?><!DOCTYPE svg PUBLIC "-//W3C//DTD SVG 1.1//EN" "http://www.w3.org/Graphics/SVG/1.1/DTD/svg11.dtd"><svg class="icon" width="12px" height="12.00px" viewBox="0 0 1024 1024" version="1.1" xmlns="http://www.w3.org/2000/svg"><path d="M877.625 798.425v-455.175h-337.5v-118.181c32.625-11.644 56.25-42.075 56.25-78.694 0-46.575-37.8-84.375-84.375-84.375-46.575 0-84.375 37.8-84.375 84.375 0 36.619 23.625 67.050 56.25 78.694v118.181h-337.5v455.175c-32.681 11.644-56.25 42.525-56.25 79.2 0 46.575 37.8 84.375 84.375 84.375 46.575 0 84.375-37.8 84.375-84.375 0-36.675-23.569-67.613-56.25-79.2v-398.925h281.25v398.925c-32.681 11.644-56.25 42.525-56.25 79.2 0 46.575 37.8 84.375 84.375 84.375 46.575 0 84.375-37.8 84.375-84.375 0-36.675-23.569-67.613-56.25-79.2v-398.925h281.25v398.925c-32.681 11.644-56.25 42.525-56.25 79.2 0 46.575 37.744 84.375 84.375 84.375 46.575 0 84.375-37.8 84.375-84.375 0-36.675-23.569-67.613-56.25-79.2z" /></svg>