<?xml version="1.0" standalone="no"?><!DOCTYPE svg PUBLIC "-//W3C//DTD SVG 1.1//EN" "http://www.w3.org/Graphics/SVG/1.1/DTD/svg11.dtd"><svg class="icon" width="12px" height="12.00px" viewBox="0 0 1024 1024" version="1.1" xmlns="http://www.w3.org/2000/svg"><path d="M512 1024V576h512v448H512z m384-320h-256v192h256v-192z m-128-192a256 256 0 1 1 256-256 256 256 0 0 1-256 256z m0-384a128 128 0 1 0 128 128 128 128 0 0 0-128-128zM0 960V576h448v448H0v-64z m128-64h192v-192H128v192zM0 448V0h448v512H0V448z m128-64h192V128H128v256z" /></svg>