<?xml version="1.0" standalone="no"?><!DOCTYPE svg PUBLIC "-//W3C//DTD SVG 1.1//EN" "http://www.w3.org/Graphics/SVG/1.1/DTD/svg11.dtd"><svg class="icon" width="12px" height="12.00px" viewBox="0 0 1024 1024" version="1.1" xmlns="http://www.w3.org/2000/svg"><path d="M752.4 329.6c-6.7-6.4-15.9-9.5-25.2-8.6-9.3 1-17.7 5.9-23 13.5L601.4 480.9l-75-237.9c-3.7-11.6-13.5-20.1-25.4-22-11.9-1.9-23.9 3-31 12.8L362.1 382.1l-38.2-41.7a31.934 31.934 0 0 0-43.5-3.4l-114 90.6c-13.8 11-16.1 31.2-5.1 45 11 13.8 31.2 16.1 45 5.1l90.6-72 44.5 48.6c6.5 7.1 15.8 10.8 25.4 10.3 9.6-0.5 18.5-5.3 24.1-13.1l93.6-128.7L559.9 562c3.6 11.6 13.6 20.1 25.6 22 1.6 0.3 3.3 0.4 4.9 0.4 10.3 0 20.1-5 26.2-13.6l118.7-169.3 80.2 76.2c12.8 12.1 33 11.6 45.2-1.2 12.1-12.8 11.6-33-1.2-45.2L752.4 329.6z"  /><path d="M868.6 96.7H155.3C108.3 96.7 70 135 70 182v443.6c0 47 38.3 85.3 85.3 85.3H480v152.3H183c-17.7 0-32 14.3-32 32s14.3 32 32 32h658c17.7 0 32-14.3 32-32s-14.3-32-32-32H544V710.9h324.7c47 0 85.2-38.2 85.2-85.3V182c0-47-38.3-85.3-85.3-85.3z m21.3 529c0 11.8-9.6 21.3-21.3 21.3H514.4c-0.8-0.1-1.6-0.1-2.4-0.1s-1.6 0-2.4 0.1H155.3c-11.8 0-21.3-9.6-21.3-21.3V182.1c0-11.8 9.6-21.3 21.3-21.3v-0.1h713.3c11.8 0 21.3 9.6 21.3 21.3v443.7z"  /></svg>