<?xml version="1.0" standalone="no"?><!DOCTYPE svg PUBLIC "-//W3C//DTD SVG 1.1//EN" "http://www.w3.org/Graphics/SVG/1.1/DTD/svg11.dtd"><svg class="icon" width="200px" height="198.45px" viewBox="0 0 1032 1024" version="1.1" xmlns="http://www.w3.org/2000/svg"><path d="M1015.225806 493.935484l-42.32258-42.83871c-23.225806-23.225806-60.903226-23.741935-84.645161-0.516129l-229.67742 227.096774c-5.16129 5.16129-8.258065 11.354839-8.774193 18.064516l-9.806452 94.451613v2.580646c0 8.258065 3.612903 16 9.290323 21.677419 5.677419 5.16129 12.903226 7.741935 20.129032 7.741935h2.580645l94.451613-8.774193c7.225806-0.516129 13.419355-3.612903 18.580645-8.258065l229.677419-227.096774c11.354839-11.354839 17.548387-26.322581 17.548388-42.322581 0-15.483871-6.193548-30.451613-17.032259-41.806451z m-109.935483 108.903226l-154.83871 152.774193-48 4.645162 5.16129-48 154.83871-152.774194 42.83871 43.354839z m24.258064-110.451613h0.516129l42.322581 42.838709v0.516129l-25.290323 25.290323-43.354839-43.870968 25.806452-24.774193z"  /><path d="M900.129032 827.354839c-19.612903 4.129032-32 23.741935-27.870967 43.354838 3.612903 16.516129 6.193548 33.548387 7.741935 50.580646H74.322581c18.580645-205.935484 192-368 403.096774-368 51.096774 0 101.16129 9.290323 148.645161 28.387096 18.580645 7.225806 39.741935-1.548387 47.483871-20.645161 7.225806-18.580645-1.548387-39.741935-20.645161-47.483871-10.322581-4.129032-21.16129-7.741935-32-11.354839 69.16129-46.451613 115.096774-125.419355 115.096774-214.709677 0-142.451613-115.612903-258.064516-258.064516-258.064516s-258.064516 115.612903-258.064516 258.064516c0 89.290323 45.935484 168.258065 115.096774 214.709677C140.903226 563.612903 0 744.774194 0 957.935484c0 20.129032 16.516129 36.645161 36.645161 36.645161H918.709677c20.129032 0 36.645161-16.516129 36.645162-36.645161 0-34.580645-3.612903-69.16129-11.354839-102.709678-4.645161-19.612903-24.258065-32-43.870968-27.870967zM292.129032 288c0-102.193548 83.096774-185.290323 185.290323-185.290323s185.290323 83.096774 185.290322 185.290323-83.096774 185.290323-185.290322 185.290323-185.290323-83.096774-185.290323-185.290323z"  /></svg>