<?xml version="1.0" standalone="no"?><!DOCTYPE svg PUBLIC "-//W3C//DTD SVG 1.1//EN" "http://www.w3.org/Graphics/SVG/1.1/DTD/svg11.dtd"><svg class="icon" width="12px" height="12.00px" viewBox="0 0 1024 1024" version="1.1" xmlns="http://www.w3.org/2000/svg"><path d="M246.314407 844.228637c0 26.376741-19.389606 47.76384-45.771463 47.76384l-49.241494 0c-26.374694 0-45.766346-21.386076-45.766346-47.76384l0-43.767829 140.77828 0L246.313384 844.228637z"  /><path d="M105.535103 371.170554l140.77828 0 0 381.540739-140.77828 0 0-381.540739Z"  /><path d="M246.314407 321.432757l-140.77828 1.496074 0-49.248657c0-26.37981 19.389606-47.7577 45.766346-47.7577l49.241494 0c26.375717 0 45.771463 21.37789 45.771463 47.7577L246.31543 321.432757z"  /><path d="M487.067656 844.228637c0 26.376741-21.375843 47.76384-47.7577 47.76384l-98.489128 0c-26.370601 0-43.768853-21.386076-43.768853-47.76384l0-43.270503 190.015681 0L487.067656 844.228637z"  /><path d="M487.067656 751.214197 297.051975 750.715847 297.051975 274.175453 487.067656 274.175453Z"  /><path d="M487.067656 226.921219l-190.015681-1.490957 0-49.743938c0-26.370601 17.398252-47.759747 43.768853-47.759747l98.490152 0c26.380834 0 47.756677 21.389146 47.756677 47.759747L487.067656 226.921219 487.067656 226.921219z"  /><path d="M773.588275 845.718571c0 26.381857-21.37175 47.76384-47.75156 47.76384L581.585333 893.482411c-26.374694 0-47.753607-21.381983-47.753607-47.76384L533.831726 274.175453c0-26.378787 21.381983-47.762817 47.753607-47.762817l144.251382 0c26.37981 0 47.75156 21.383006 47.75156 47.762817L773.588275 845.718571z"  /><path d="M916.851143 845.718571c0 26.381857-18.391882 47.76384-44.773739 47.76384l-7.455809 0c-26.371624 0-42.786479-19.384489-42.786479-45.76737l0.00614 0L821.841256 753.207597l95.009887-1.990331L916.851143 845.718571 916.851143 845.718571z"  /><path d="M916.851143 700.971909 821.835116 702.95917 821.835116 562.681286 916.851143 562.190099Z"  /><path d="M916.851143 511.945765l-95.016027 0L821.835116 417.931554c0-26.369577 16.413831-49.743938 42.786479-49.743938l7.455809 0c26.372647 0 44.773739 21.38096 44.773739 47.747467L916.851143 511.945765z"  /><path d="M872.077404 368.187617"  /></svg>