<?xml version="1.0" standalone="no"?><!DOCTYPE svg PUBLIC "-//W3C//DTD SVG 1.1//EN" "http://www.w3.org/Graphics/SVG/1.1/DTD/svg11.dtd"><svg t="1586029231427" class="icon" viewBox="0 0 1024 1024" version="1.1" xmlns="http://www.w3.org/2000/svg" p-id="3791" xmlns:xlink="http://www.w3.org/1999/xlink" width="32" height="32"><defs><style type="text/css"></style></defs><path d="M511.2 28.6C241.1 28.6 25 244.7 25 514.8S241.1 1001 511.2 1001s486.2-216.1 486.2-486.2c0-27-18-45-45-45s-45 18-45 45c0 216.1-180.1 396.2-396.2 396.2S115 730.9 115 514.8s180.1-396.2 396.2-396.2c72 0 153.1 18 207.1 63v9l-45 54c-18 18 0 54 27 54l207.1 9c18 0 36-27 36-45l-63-198.1c-9-27-45-36-63-9l-36 54c-81.1-53.9-171.1-80.9-270.2-80.9z m0 0" fill="#1296DB" p-id="3792"></path></svg>