<?xml version="1.0" standalone="no"?><!DOCTYPE svg PUBLIC "-//W3C//DTD SVG 1.1//EN" "http://www.w3.org/Graphics/SVG/1.1/DTD/svg11.dtd"><svg class="icon" width="12px" height="12.00px" viewBox="0 0 1024 1024" version="1.1" xmlns="http://www.w3.org/2000/svg"><path d="M512.213333 42.666667a42.666667 42.666667 0 0 1 42.666667 42.666666v426.666667a42.666667 42.666667 0 0 1-85.333333 0V85.333333a42.666667 42.666667 0 0 1 42.666666-42.666666zM210.261333 253.141333a42.624 42.624 0 1 1 60.330667 60.330667 341.333333 341.333333 0 1 0 482.773333 0 42.666667 42.666667 0 0 1 60.330667-60.330667c166.570667 166.656 166.570667 436.778667-0.085333 603.349334-166.613333 166.613333-436.736 166.613333-603.349334 0s-166.613333-436.693333 0-603.349334z" /></svg>