<?xml version="1.0" standalone="no"?><!DOCTYPE svg PUBLIC "-//W3C//DTD SVG 1.1//EN" "http://www.w3.org/Graphics/SVG/1.1/DTD/svg11.dtd"><svg class="icon" width="12px" height="12.00px" viewBox="0 0 1024 1024" version="1.1" xmlns="http://www.w3.org/2000/svg"><path d="M896.7 224h-385v-64.7c0-34.9-28.3-63.3-63.3-63.3H126.9c-34.9 0-63.3 28.3-63.3 63.3v705.5c0 34.9 28.3 63.3 63.3 63.3h769.8c34.9 0 63.3-28.3 63.3-63.3V287.2c0-34.8-28.5-63.2-63.3-63.2z m-74.1 470.6c-5.8 5.8-13.8 9.4-22.6 9.4H224.3c-17.6 0-32-14.4-32-32 0-8.8 3.6-16.8 9.4-22.6 5.8-5.8 13.8-9.4 22.6-9.4H800c17.6 0 32 14.4 32 32 0 8.8-3.6 16.8-9.4 22.6z m0-192c-5.8 5.8-13.8 9.4-22.6 9.4H224.3c-17.6 0-32-14.4-32-32 0-8.8 3.6-16.8 9.4-22.6 5.8-5.8 13.8-9.4 22.6-9.4H800c17.6 0 32 14.4 32 32 0 8.8-3.6 16.8-9.4 22.6z" /></svg>